<?xml version="1.0" encoding="UTF-8"?>
<svg xmlns="http://www.w3.org/2000/svg"
    xmlns:xlink="http://www.w3.org/1999/xlink" viewBox="0 0 210.15 49.3">
    <defs>
        <style>
        .cls-1{
            fill:#000;
        }
        html[data-theme='dark'] .cls-1{
            fill:#000;
        }
        .cls-2{
            fill:#d37352;
        }
        .cls-3{
            clip-path:url(#clippath-1);
        }
        .cls-4{
            fill:none;
        }
        </style>
        <clipPath id="clippath-1">
            <rect class="cls-4" x=".21" y="3.53" width="209.79" height="26.71"/>
        </clipPath>
    </defs>
    <g id="Layer_1">
        <g>
            <g>
                <path class="cls-1" d="M44.8,17.03c1.71,2.44,3.1,4.6,4.17,6.49h.11c-.14-3.1-.21-5.36-.21-6.78V5.94h4.37V29.8h-4.58l-7.77-10.98c-1.37-1.9-2.78-4.11-4.24-6.62h-.11c.14,2.92,.21,5.19,.21,6.79v10.81h-4.37V5.94h4.58l7.85,11.09h0Z"/>
                <path class="cls-1" d="M70.51,21.17c0-.92-.11-1.72-.32-2.43-.21-.7-.51-1.29-.89-1.77-.38-.48-.84-.83-1.37-1.07-.54-.24-1.12-.36-1.75-.36s-1.19,.12-1.72,.36c-.53,.24-.98,.59-1.36,1.07-.38,.48-.68,1.06-.89,1.77-.21,.7-.32,1.51-.32,2.43s.11,1.72,.32,2.43c.21,.7,.51,1.29,.9,1.76,.39,.47,.84,.83,1.37,1.07,.53,.24,1.11,.37,1.74,.37s1.21-.12,1.73-.37c.52-.24,.97-.6,1.36-1.07,.38-.47,.68-1.05,.89-1.76,.21-.7,.32-1.51,.32-2.43h0Zm4.37,0c0,1.36-.2,2.59-.61,3.71-.4,1.12-.98,2.07-1.74,2.87-.76,.8-1.67,1.41-2.74,1.85-1.07,.43-2.26,.65-3.58,.65s-2.57-.22-3.65-.65c-1.08-.43-1.99-1.05-2.74-1.85-.75-.8-1.32-1.75-1.72-2.87-.4-1.12-.6-2.35-.6-3.71s.2-2.59,.61-3.71c.4-1.12,.98-2.07,1.74-2.87,.75-.8,1.67-1.41,2.74-1.85,1.07-.43,2.26-.65,3.58-.65s2.57,.22,3.65,.65c1.08,.43,1.99,1.05,2.74,1.85,.75,.8,1.32,1.75,1.72,2.87,.4,1.12,.6,2.35,.6,3.71h0Z"/>
                <path class="cls-1" d="M86.06,26.87c.42,0,.81-.05,1.19-.16,.37-.11,.73-.25,1.06-.43,.33-.18,.63-.37,.88-.59,.26-.21,.47-.42,.65-.62v-8.2c-.5-.4-1.06-.74-1.68-1.01-.62-.27-1.27-.4-1.96-.4-.44,0-.9,.09-1.38,.27-.48,.18-.92,.48-1.32,.91-.4,.43-.73,1.02-1,1.78-.27,.76-.4,1.73-.4,2.91,0,1.74,.34,3.09,1.01,4.07,.67,.97,1.66,1.47,2.95,1.48h0Zm-8.33-5.37c0-1.51,.21-2.86,.62-4.04,.42-1.18,.98-2.18,1.7-2.98,.72-.8,1.54-1.4,2.47-1.8,.93-.4,1.89-.6,2.89-.6,.46,0,.9,.04,1.32,.12,.42,.08,.81,.2,1.18,.34,.37,.14,.71,.3,1.03,.48,.32,.18,.62,.36,.89,.55h.04c-.01-.24-.02-.57-.03-1.01,0-.43,0-.91,0-1.42V3.98h4.23V24.66c0,1.14,.01,2.12,.04,2.94,.02,.82,.05,1.55,.07,2.19h-3.82l-.18-1.84h-.07c-.25,.3-.55,.59-.9,.87-.35,.29-.74,.53-1.16,.74-.42,.21-.89,.37-1.39,.49-.51,.12-1.06,.18-1.65,.18-.94,0-1.84-.17-2.7-.5-.86-.33-1.63-.85-2.32-1.54-.68-.7-1.23-1.6-1.64-2.73-.41-1.12-.62-2.45-.62-3.97h0Z"/>
                <g class="cls-3">
                    <path class="cls-1" d="M106.2,15.39c-.53,0-1.01,.1-1.43,.29-.42,.2-.78,.46-1.08,.8-.3,.34-.54,.73-.72,1.19-.18,.45-.3,.93-.36,1.44h6.79c0-.51-.07-.99-.2-1.44-.14-.45-.34-.85-.61-1.19-.27-.34-.6-.61-1-.8-.4-.2-.86-.29-1.4-.29h0Zm1.69,11.45c.82,0,1.68-.08,2.57-.25,.89-.17,1.79-.4,2.71-.71v3.37c-.55,.24-1.39,.46-2.51,.68-1.13,.21-2.3,.32-3.51,.32s-2.39-.16-3.49-.47c-1.1-.31-2.06-.82-2.88-1.52-.82-.7-1.47-1.61-1.95-2.73-.48-1.12-.72-2.47-.72-4.07s.23-2.94,.68-4.12c.45-1.18,1.06-2.15,1.82-2.92,.76-.77,1.63-1.35,2.61-1.74,.98-.39,1.99-.58,3.04-.58s2.1,.17,3.02,.5c.92,.33,1.72,.86,2.39,1.57,.67,.71,1.19,1.63,1.57,2.76,.37,1.12,.56,2.45,.56,3.99-.01,.59-.03,1.1-.05,1.52h-11.32c.06,.8,.24,1.48,.53,2.04,.3,.56,.69,1.02,1.17,1.37,.48,.35,1.04,.61,1.69,.77,.64,.16,1.34,.24,2.09,.24h0Z"/>
                    <path class="cls-1" d="M128.54,7.4c-.46-.12-.94-.22-1.44-.29-.49-.08-.96-.12-1.4-.12-.48,0-.9,.06-1.27,.17-.37,.11-.68,.3-.94,.56-.26,.26-.45,.6-.58,1.02-.13,.42-.2,.92-.2,1.52v2.26h4.8v3.48h-4.8v13.8h-4.23V15.99h-2.92v-3.48h2.92v-2.05c0-1.21,.17-2.26,.51-3.13,.34-.87,.81-1.59,1.42-2.16,.61-.56,1.32-.98,2.14-1.25,.82-.27,1.71-.4,2.67-.4,.59,0,1.19,.05,1.77,.15,.59,.1,1.1,.22,1.52,.37v3.35h0Z"/>
                </g>
                <path class="cls-1" d="M137.33,30.24c-1.74,0-3.17-.29-4.32-.88-1.14-.59-2-1.38-2.59-2.38-.31-.54-.54-1.12-.69-1.77-.15-.64-.22-1.36-.22-2.14V12.52h4.23v10.11c0,.58,.04,1.08,.12,1.51,.08,.42,.21,.79,.37,1.1,.29,.52,.69,.91,1.21,1.17,.52,.26,1.15,.38,1.87,.38s1.41-.14,1.95-.43c.54-.29,.95-.72,1.22-1.3,.27-.56,.41-1.34,.41-2.34V12.52h4.23v10.56c0,1.4-.24,2.59-.73,3.55-.27,.55-.63,1.04-1.06,1.49-.43,.45-.95,.83-1.53,1.14-.59,.31-1.25,.56-2,.73-.74,.17-1.57,.26-2.49,.26h0Z"/>
                <path class="cls-1" d="M157.25,24.79c0-.37-.1-.67-.31-.91-.21-.24-.48-.44-.83-.6-.34-.16-.74-.3-1.19-.42-.45-.12-.91-.24-1.4-.36-.62-.17-1.21-.36-1.78-.58-.57-.22-1.07-.51-1.51-.86-.43-.36-.78-.81-1.03-1.35-.26-.54-.38-1.2-.38-1.99,0-.96,.17-1.8,.52-2.51,.34-.71,.81-1.29,1.4-1.76,.59-.46,1.27-.81,2.05-1.03,.78-.23,1.6-.34,2.47-.34,1.06,0,2.05,.09,2.98,.26,.93,.17,1.77,.4,2.52,.67v3.44c-.39-.13-.81-.25-1.24-.37-.43-.11-.87-.21-1.32-.29-.45-.08-.89-.15-1.33-.21-.44-.05-.86-.08-1.25-.08-.5,0-.92,.05-1.27,.14-.34,.1-.62,.22-.84,.38-.21,.16-.37,.34-.46,.55-.1,.21-.14,.43-.14,.65,0,.39,.1,.71,.31,.96,.21,.25,.5,.45,.87,.61,.37,.15,.75,.28,1.16,.38,.4,.1,.8,.2,1.18,.29,.59,.14,1.19,.32,1.78,.52,.59,.2,1.13,.48,1.61,.85,.47,.36,.86,.83,1.17,1.41,.3,.58,.45,1.31,.45,2.2,0,.97-.18,1.83-.55,2.55-.37,.73-.88,1.33-1.54,1.81-.66,.48-1.45,.84-2.37,1.07-.92,.23-1.94,.35-3.04,.35s-2.08-.09-2.95-.26c-.87-.17-1.6-.39-2.17-.65v-3.41c.93,.34,1.78,.58,2.57,.7,.78,.12,1.52,.19,2.19,.19,.52,0,1.01-.04,1.46-.12,.45-.08,.84-.2,1.17-.37,.33-.17,.59-.38,.78-.63,.19-.26,.29-.56,.29-.92h0Z"/>
                <path class="cls-1" d="M165.19,12.52h4.23V29.8h-4.23V12.52h0Zm-.11-8.54h4.44v4.58h-4.44V3.98h0Z"/>
                <path class="cls-1" d="M186.26,21.17c0-.92-.11-1.72-.32-2.43-.21-.7-.51-1.29-.89-1.77-.38-.48-.84-.83-1.37-1.07-.53-.24-1.12-.36-1.75-.36s-1.19,.12-1.72,.36c-.53,.24-.98,.59-1.36,1.07-.38,.48-.68,1.06-.89,1.77-.21,.7-.32,1.51-.32,2.43s.11,1.72,.32,2.43c.21,.7,.51,1.29,.9,1.76,.39,.47,.84,.83,1.37,1.07,.53,.24,1.11,.37,1.74,.37s1.21-.12,1.73-.37c.52-.24,.98-.6,1.36-1.07,.38-.47,.68-1.05,.89-1.76,.21-.7,.32-1.51,.32-2.43h0Zm4.37,0c0,1.36-.2,2.59-.61,3.71-.4,1.12-.98,2.07-1.74,2.87-.75,.8-1.67,1.41-2.74,1.85-1.07,.43-2.27,.65-3.58,.65s-2.57-.22-3.65-.65c-1.08-.43-1.99-1.05-2.74-1.85-.75-.8-1.32-1.75-1.72-2.87-.4-1.12-.6-2.35-.6-3.71s.2-2.59,.61-3.71c.4-1.12,.98-2.07,1.74-2.87,.76-.8,1.67-1.41,2.74-1.85,1.07-.43,2.26-.65,3.58-.65s2.57,.22,3.65,.65c1.08,.43,1.99,1.05,2.74,1.85,.75,.8,1.32,1.75,1.72,2.87,.4,1.12,.6,2.35,.6,3.71h0Z"/>
                <path class="cls-1" d="M198.27,14.92h.07c.25-.36,.56-.71,.95-1.05,.38-.34,.81-.65,1.3-.91,.49-.26,1.03-.47,1.61-.63,.59-.16,1.22-.24,1.88-.24,.63,0,1.24,.07,1.83,.21,.59,.14,1.13,.37,1.61,.67,.49,.3,.92,.7,1.29,1.18,.38,.48,.67,1.06,.88,1.72,.12,.37,.2,.77,.24,1.2,.04,.43,.06,.94,.06,1.51v11.22h-4.23v-10.56c0-.46-.02-.86-.05-1.19-.04-.33-.1-.62-.2-.87-.21-.55-.54-.94-.97-1.18-.43-.24-.96-.36-1.58-.36-.82,0-1.61,.19-2.36,.58-.75,.39-1.42,.95-2.01,1.69v11.89h-4.23V12.52h3.5l.39,2.41h0Z"/>
            </g>
            <!-- <g>
                <path class="cls-1" d="M34.53,41.01v3.29h-2.16v-9.95h3.45c1.24,0,2.18,.27,2.8,.81,.62,.54,.93,1.35,.93,2.43,0,1.02-.36,1.85-1.07,2.48-.71,.63-1.67,.94-2.86,.94h-1.09Zm0-4.98v3.32h.9c.61,0,1.07-.14,1.38-.42,.31-.28,.46-.7,.46-1.26s-.15-.96-.45-1.24c-.3-.27-.76-.41-1.38-.41h-.91Z"/>
                <path class="cls-1" d="M45.36,44.47c-1.42,0-2.58-.46-3.47-1.39-.9-.93-1.34-2.13-1.34-3.62,0-1.57,.45-2.84,1.36-3.82,.91-.97,2.11-1.46,3.62-1.46,1.42,0,2.56,.46,3.43,1.39,.87,.93,1.31,2.16,1.31,3.68s-.45,2.83-1.36,3.78c-.91,.96-2.09,1.43-3.55,1.43Zm.04-1.88c.8,0,1.43-.28,1.89-.85,.46-.56,.69-1.35,.69-2.37s-.23-1.87-.68-2.45c-.45-.58-1.07-.87-1.86-.87s-1.44,.3-1.92,.9c-.48,.6-.71,1.39-.71,2.38s.24,1.8,.71,2.38c.47,.58,1.1,.87,1.86,.87Z"/>
                <path class="cls-1" d="M60.1,44.3h-2.46l-1.35-2.48c-.22-.4-.43-.71-.65-.91-.22-.2-.47-.32-.75-.34h-.64v3.73h-2.16v-9.95h3.5c1.19,0,2.08,.23,2.69,.7,.6,.47,.9,1.17,.9,2.11,0,.66-.19,1.23-.58,1.71s-.91,.83-1.58,1.07v.03c.29,.09,.56,.28,.81,.57s.47,.59,.64,.91l1.64,2.87Zm-5.85-8.31v2.93h1.01c.49,0,.88-.15,1.18-.44s.45-.66,.45-1.1-.13-.8-.4-1.04c-.26-.23-.66-.35-1.19-.35h-1.05Z"/>
                <path class="cls-1" d="M68.03,36.12h-2.84v8.18h-2.17v-8.18h-2.83v-1.77h7.85v1.77Z"/>
                <path class="cls-1" d="M67.47,44.3l3.63-9.95h2.57l3.56,9.95h-2.37l-.69-2.12h-3.66l-.69,2.12h-2.34Zm3.51-3.82h2.66l-1.12-3.52c-.05-.13-.08-.24-.11-.34s-.05-.23-.07-.38h-.06c-.02,.13-.05,.25-.07,.36s-.06,.22-.09,.33l-1.15,3.54Z"/>
                <path class="cls-1" d="M84.48,44.3h-5.87v-9.95h2.16v8.19h3.7v1.76Z"/>
            </g> -->
        </g>
    </g>
    <g id="logo">
        <g>
            <path class="cls-2" d="M20.54,13.73c-4-1.5-8.39,1.08-8.95,5.4-.05,.38-.06,.76-.04,1.13l.05,1.19-1.23-.05c-3.25-.14-6.12,2.07-6.79,5.31-.66,3.18,1.12,6.42,4.17,7.56,4,1.5,8.39-1.08,8.95-5.4,.05-.38,.06-.76,.04-1.13l-.05-1.19,1.23,.05c3.25,.14,6.12-2.07,6.79-5.31,.66-3.18-1.12-6.42-4.17-7.56h0ZM7.52,36.6c-4.53-1.36-7.24-6.1-6.1-10.69,.94-3.77,4.12-6.43,7.88-6.75,.05-.56,.15-1.11,.31-1.65,1.36-4.77,6.38-7.53,11.15-6.1,4.53,1.36,7.24,6.1,6.1,10.69-.94,3.77-4.12,6.43-7.88,6.75-.05,.56-.15,1.11-.31,1.65-1.36,4.77-6.38,7.53-11.15,6.1h0Z"/>
            <path class="cls-2" d="M19.81,14.43c-3.4-1-6.98,1.29-7.36,4.98-.03,.26-.03,.53-.02,.79l.06,1.43c.02,.41-.32,.75-.73,.73l-1.44-.06c-2.74-.11-5.16,1.7-5.82,4.38-.73,2.97,1.03,6.03,3.97,6.89,3.4,1,6.98-1.29,7.36-4.98,.03-.26,.03-.53,.02-.79l-.06-1.43c-.02-.41,.32-.75,.73-.73l1.44,.06c2.74,.11,5.16-1.7,5.82-4.38,.73-2.97-1.03-6.03-3.97-6.89h0ZM7.99,35.3c-3.91-1.13-6.24-5.22-5.22-9.16,.9-3.46,4.06-5.79,7.61-5.64h.26s-.01-.25-.01-.25c-.03-.8,.06-1.6,.28-2.37,1.14-4.01,5.34-6.34,9.35-5.18,3.91,1.13,6.24,5.22,5.22,9.16-.9,3.46-4.06,5.79-7.61,5.64h-.26s.01,.25,.01,.25c.03,.8-.06,1.6-.28,2.37-1.14,4.01-5.34,6.34-9.35,5.18h0ZM20.83,12.37c-4.39-1.53-9.11,.97-10.37,5.38-.14,.48-.23,.98-.28,1.48l-.07,.75-.75,.06c-3.34,.29-6.1,2.57-7.02,5.82-1.15,4.06,1.09,8.37,5.08,9.76,4.39,1.53,9.11-.97,10.37-5.38,.14-.48,.23-.98,.28-1.48l.07-.75,.75-.06c3.34-.29,6.1-2.57,7.02-5.82,1.15-4.06-1.09-8.37-5.08-9.76h0ZM4.57,36.2C1.79,34.4,.14,31.26,.24,27.95c.15-5.04,3.67-8.87,8.26-9.6,.06-.37,.14-.73,.24-1.09,1.76-6.17,9.07-9.28,14.96-5.46,2.78,1.8,4.43,4.94,4.33,8.25-.15,5.04-3.67,8.87-8.26,9.6-.06,.37-.14,.73-.24,1.09-1.76,6.17-9.07,9.28-14.96,5.46h0Z"/>
        </g>
    </g>
</svg>