<?xml version="1.0" encoding="UTF-8"?>
<svg xmlns="http://www.w3.org/2000/svg" version="1.1" viewBox="0 0 220 50">
  <defs>
    <style>
      .cls-1 {
        fill: #fff;
      }

      .cls-2 {
        fill: #f37856;
      }
    </style>
  </defs>
  <!-- Generator: Adobe Illustrator 28.6.0, SVG Export Plug-In . SVG Version: 1.2.0 Build 709)  -->
  <g>
    <g id="Layer_1">
      <g>
        <path class="cls-1" d="M45.73,32.46h-2.56l-6.75-10.38c-.17-.26-.31-.54-.42-.82h-.06c.05.3.08.95.08,1.94v9.26h-2.26v-14.12h2.73l6.52,10.13c.28.42.45.71.53.87h.04c-.07-.37-.1-1.01-.1-1.9v-9.1h2.25v14.12Z"/>
        <path class="cls-1" d="M53.44,32.7c-1.56,0-2.8-.47-3.73-1.41-.93-.94-1.39-2.19-1.39-3.75,0-1.69.48-3.02,1.45-3.97.97-.95,2.27-1.43,3.91-1.43s2.8.46,3.68,1.39c.88.93,1.32,2.21,1.32,3.85s-.47,2.9-1.42,3.87-2.22,1.45-3.83,1.45ZM53.55,23.96c-.89,0-1.6.31-2.12.94-.52.62-.78,1.48-.78,2.58s.26,1.89.79,2.5c.53.61,1.23.91,2.11.91s1.59-.3,2.07-.9c.48-.6.72-1.45.72-2.55s-.24-1.97-.72-2.57c-.48-.6-1.17-.91-2.07-.91Z"/>
        <path class="cls-1" d="M70.18,32.46h-2.28v-1.71h-.04c-.74,1.3-1.87,1.95-3.4,1.95-1.24,0-2.23-.45-2.98-1.35-.75-.9-1.12-2.13-1.12-3.69,0-1.67.41-3,1.24-4.01s1.92-1.51,3.29-1.51,2.35.54,2.96,1.63h.04v-6.24h2.28v14.93ZM67.93,27.85v-1.32c0-.72-.23-1.32-.7-1.82-.47-.5-1.06-.75-1.78-.75-.85,0-1.52.32-2.01.95-.49.64-.73,1.52-.73,2.65,0,1.02.23,1.83.7,2.43.47.59,1.1.89,1.9.89s1.41-.29,1.9-.86c.49-.57.73-1.3.73-2.17Z"/>
        <path class="cls-1" d="M81.7,28.04h-6.87c.03.93.31,1.65.86,2.16.55.51,1.3.76,2.26.76,1.08,0,2.06-.32,2.96-.96v1.84c-.92.58-2.13.87-3.64.87s-2.65-.46-3.49-1.37c-.84-.92-1.27-2.2-1.27-3.86,0-1.57.46-2.85,1.39-3.84.93-.99,2.08-1.48,3.46-1.48s2.45.44,3.2,1.33,1.13,2.12,1.13,3.69v.88ZM79.5,26.42c0-.82-.2-1.46-.58-1.92-.38-.46-.91-.68-1.58-.68s-1.21.24-1.67.72c-.46.48-.74,1.11-.84,1.88h4.67Z"/>
        <path class="cls-1" d="M89.58,19.39c-.31-.18-.66-.27-1.05-.27-1.11,0-1.66.63-1.66,1.88v1.37h2.34v1.79h-2.33v8.29h-2.28v-8.29h-1.72v-1.79h1.72v-1.63c0-1.06.35-1.9,1.04-2.52.7-.61,1.57-.92,2.61-.92.56,0,1.01.06,1.34.19v1.9Z"/>
        <path class="cls-1" d="M99.62,32.46h-2.28v-1.6h-.04c-.66,1.22-1.69,1.83-3.09,1.83-2.38,0-3.57-1.43-3.57-4.29v-6.03h2.28v5.79c0,1.81.7,2.72,2.1,2.72.68,0,1.23-.25,1.67-.75.44-.5.66-1.15.66-1.96v-5.8h2.28v10.08Z"/>
        <path class="cls-1" d="M101.97,32.14v-2.12c.85.65,1.8.97,2.83.97,1.38,0,2.07-.41,2.07-1.22,0-.23-.06-.43-.18-.59-.12-.16-.28-.3-.48-.43-.2-.12-.44-.24-.71-.33-.27-.1-.58-.21-.91-.33-.41-.16-.79-.34-1.12-.52-.33-.18-.61-.39-.83-.63s-.39-.5-.5-.79c-.11-.3-.17-.64-.17-1.03,0-.49.11-.91.34-1.28.23-.37.54-.68.93-.94.39-.25.83-.44,1.32-.57s1-.19,1.53-.19c.93,0,1.77.14,2.5.42v2c-.71-.49-1.52-.73-2.44-.73-.29,0-.55.03-.78.09-.23.06-.43.14-.6.25s-.29.23-.38.38-.14.31-.14.49c0,.22.05.4.14.55.09.15.23.28.41.4s.4.22.65.31c.25.1.54.2.87.31.43.18.82.36,1.17.54.34.18.64.39.88.63.24.23.43.5.56.81.13.31.2.67.2,1.09,0,.51-.12.96-.35,1.34-.24.38-.55.7-.95.95-.39.25-.85.43-1.36.56s-1.06.18-1.63.18c-1.1,0-2.06-.18-2.87-.55Z"/>
        <path class="cls-1" d="M112.44,20.26c-.37,0-.69-.12-.96-.36-.27-.24-.4-.55-.4-.93s.13-.69.4-.94.59-.37.96-.37.72.12.98.37.4.56.4.94c0,.35-.13.66-.4.91-.27.25-.6.38-.98.38ZM113.58,32.46h-2.28v-10.08h2.28v10.08Z"/>
        <path class="cls-1" d="M121.03,32.7c-1.56,0-2.8-.47-3.73-1.41-.93-.94-1.39-2.19-1.39-3.75,0-1.69.48-3.02,1.45-3.97.97-.95,2.27-1.43,3.91-1.43s2.8.46,3.68,1.39c.88.93,1.32,2.21,1.32,3.85s-.47,2.9-1.42,3.87-2.22,1.45-3.83,1.45ZM121.14,23.96c-.89,0-1.6.31-2.12.94-.52.62-.78,1.48-.78,2.58s.26,1.89.79,2.5c.53.61,1.23.91,2.11.91s1.59-.3,2.07-.9c.48-.6.72-1.45.72-2.55s-.24-1.97-.72-2.57c-.48-.6-1.17-.91-2.07-.91Z"/>
        <path class="cls-1" d="M137.58,32.46h-2.29v-5.68c0-1.88-.67-2.83-2-2.83-.7,0-1.27.26-1.72.78-.45.52-.68,1.18-.68,1.97v5.75h-2.29v-10.08h2.29v1.67h.04c.75-1.27,1.85-1.91,3.27-1.91,1.1,0,1.93.36,2.51,1.07.58.71.87,1.74.87,3.09v6.16Z"/>
        <path class="cls-1" d="M157.77,32.46h-2.57l-1.27-3.59h-5.55l-1.22,3.59h-2.56l5.29-14.12h2.64l5.25,14.12ZM153.31,26.95l-1.96-5.63c-.06-.18-.12-.48-.19-.89h-.04c-.06.37-.12.67-.2.89l-1.94,5.63h4.32Z"/>
        <path class="cls-1" d="M166.67,32c-.81.47-1.76.7-2.87.7-1.5,0-2.7-.47-3.62-1.4-.92-.94-1.38-2.15-1.38-3.64,0-1.66.49-3,1.48-4s2.31-1.51,3.96-1.51c.92,0,1.73.16,2.43.48v2.13c-.7-.53-1.45-.79-2.24-.79-.96,0-1.76.33-2.37.98-.62.65-.93,1.51-.93,2.57s.29,1.87.87,2.47c.58.6,1.36.91,2.34.91.82,0,1.6-.29,2.32-.88v1.99Z"/>
        <path class="cls-1" d="M176.15,32c-.81.47-1.76.7-2.87.7-1.5,0-2.7-.47-3.62-1.4-.92-.94-1.38-2.15-1.38-3.64,0-1.66.49-3,1.48-4s2.31-1.51,3.96-1.51c.92,0,1.73.16,2.43.48v2.13c-.7-.53-1.45-.79-2.24-.79-.96,0-1.76.33-2.37.98-.62.65-.93,1.51-.93,2.57s.29,1.87.87,2.47c.58.6,1.36.91,2.34.91.82,0,1.6-.29,2.32-.88v1.99Z"/>
        <path class="cls-1" d="M182.89,32.7c-1.56,0-2.8-.47-3.73-1.41-.93-.94-1.39-2.19-1.39-3.75,0-1.69.48-3.02,1.45-3.97.97-.95,2.27-1.43,3.91-1.43s2.8.46,3.68,1.39c.88.93,1.32,2.21,1.32,3.85s-.47,2.9-1.42,3.87-2.22,1.45-3.83,1.45ZM183,23.96c-.89,0-1.6.31-2.12.94-.52.62-.78,1.48-.78,2.58s.26,1.89.79,2.5c.53.61,1.23.91,2.11.91s1.59-.3,2.07-.9c.48-.6.72-1.45.72-2.55s-.24-1.97-.72-2.57c-.48-.6-1.17-.91-2.07-.91Z"/>
        <path class="cls-1" d="M199.25,32.46h-2.28v-1.6h-.04c-.66,1.22-1.69,1.83-3.09,1.83-2.38,0-3.57-1.43-3.57-4.29v-6.03h2.28v5.79c0,1.81.7,2.72,2.1,2.72.68,0,1.23-.25,1.67-.75.44-.5.65-1.15.65-1.96v-5.8h2.28v10.08Z"/>
        <path class="cls-1" d="M211.21,32.46h-2.29v-5.68c0-1.88-.67-2.83-2-2.83-.7,0-1.27.26-1.72.78-.45.52-.68,1.18-.68,1.97v5.75h-2.29v-10.08h2.29v1.67h.04c.75-1.27,1.85-1.91,3.27-1.91,1.1,0,1.93.36,2.51,1.07.58.71.87,1.74.87,3.09v6.16Z"/>
        <path class="cls-1" d="M219.31,32.35c-.45.22-1.03.34-1.76.34-1.96,0-2.93-.94-2.93-2.82v-5.7h-1.68v-1.79h1.68v-2.33l2.28-.65v2.98h2.41v1.79h-2.41v5.04c0,.6.11,1.02.33,1.28s.58.38,1.08.38c.39,0,.72-.11,1-.34v1.81Z"/>
      </g>
    </g>
    <g id="Layer_2">
      <g>
        <path class="cls-1" d="M22.06,15.1c0,4.82-2.58,10.02-7.31,10.02s-7.31-5.2-7.31-10.02,2.66-8.43,7.31-8.43c5.12,0,7.31,3.62,7.31,8.43Z"/>
        <path class="cls-1" d="M22.35,40.16c.05-1.57,1.14-2.76,2.57-2.99.02-.11.04-.23.08-.34.42-1.46,1.83-2.37,3.29-2.2-.26-2.35-.79-5.12-1.83-6.22-1.13-1.2-4.65-2.82-7-3.82-1.34,1.18-2.95,1.7-4.7,1.7s-3.36-.52-4.7-1.7c-2.35,1-5.87,2.62-7,3.82-1.44,1.52-1.89,6.21-2.03,8.59-.07,1.16.59,2.24,1.67,2.77,1.77.87,5.26,1.84,12.06,1.84,3.28,0,5.79-.23,7.71-.56-.08-.29-.12-.59-.11-.89Z"/>
        <g>
          <path class="cls-2" d="M25.1,42.96c-1.33-.4-2.13-1.79-1.79-3.14.27-1.11,1.21-1.89,2.31-1.98.01-.16.04-.33.09-.48.4-1.4,1.88-2.21,3.28-1.79s2.13,1.79,1.79,3.14c-.27,1.11-1.21,1.89-2.31,1.98-.01.16-.04.33-.09.48-.4,1.4-1.88,2.21-3.28,1.79ZM28.93,36.24c-1.17-.44-2.46.32-2.63,1.59-.01.11-.02.22-.01.33v.35s-.35-.02-.35-.02c-.95-.04-1.8.61-1.99,1.56s.33,1.89,1.22,2.22c1.17.44,2.46-.32,2.63-1.59.01-.11.02-.22.01-.33v-.35s.35.02.35.02c.95.04,1.8-.61,1.99-1.56s-.33-1.89-1.22-2.22Z"/>
          <path class="cls-2" d="M24.24,42.84c-.82-.53-1.3-1.45-1.27-2.42.05-1.48,1.08-2.61,2.43-2.82.02-.11.04-.22.07-.32.52-1.81,2.66-2.73,4.4-1.6.82.53,1.3,1.45,1.27,2.42-.05,1.48-1.08,2.61-2.43,2.82-.02.11-.04.22-.07.32-.52,1.81-2.66,2.73-4.4,1.6ZM29.02,35.84c-1.29-.45-2.68.29-3.05,1.58-.04.14-.07.29-.08.44l-.02.22-.22.02c-.98.08-1.79.76-2.06,1.71-.34,1.19.32,2.46,1.49,2.87,1.29.45,2.68-.29,3.05-1.58.04-.14.07-.29.08-.44l.02-.22.22-.02c.98-.08,1.79-.76,2.06-1.71.34-1.19-.32-2.46-1.49-2.87ZM25.25,42.58c-1.15-.33-1.83-1.53-1.53-2.69.27-1.02,1.19-1.7,2.24-1.66h.08s0-.07,0-.07c0-.24.02-.47.08-.7.34-1.18,1.57-1.86,2.75-1.52s1.83,1.53,1.53,2.69c-.27,1.02-1.19,1.7-2.24,1.66h-.08s0,.07,0,.07c0,.24-.02.47-.08.7-.34,1.18-1.57,1.86-2.75,1.52ZM28.72,36.45c-1-.29-2.05.38-2.16,1.46,0,.08,0,.15,0,.23l.02.42c0,.12-.09.22-.22.21l-.42-.02c-.8-.03-1.52.5-1.71,1.29-.21.87.3,1.77,1.17,2.02,1,.29,2.05-.38,2.16-1.46,0-.08,0-.15,0-.23l-.02-.42c0-.12.09-.22.22-.21l.42.02c.8.03,1.52-.5,1.71-1.29.21-.87-.3-1.77-1.17-2.02Z"/>
        </g>
      </g>
    </g>
  </g>
</svg>