<?xml version="1.0" encoding="UTF-8"?>
<svg xmlns="http://www.w3.org/2000/svg" version="1.1" viewBox="0 0 512 512">
  <defs>
    <style>
      .cls-1 {
        fill: #333;
      }

      @media (prefers-color-scheme: dark) {
        .cls-1 {
          fill: #fff;
        }
      }

      .cls-2 {
        fill: #f37856;
      }
    </style>
  </defs>
  <!-- Generator: Adobe Illustrator 28.6.0, SVG Export Plug-In . SVG Version: 1.2.0 Build 709)  -->
  <g>
    <g id="Layer_1">
      <g>
        <path class="cls-1" d="M335.47,124.51c0,63.98-34.31,133.03-97.04,133.03s-97.04-69.05-97.04-133.03S176.75,12.52,238.44,12.52c67.93,0,97.04,48.01,97.04,111.99Z"/>
        <path class="cls-1" d="M339.32,457.31c.64-20.84,15.2-36.71,34.16-39.74.25-1.52.59-3.03,1.01-4.51,5.52-19.36,24.26-31.43,43.63-29.24-3.5-31.18-10.48-67.94-24.31-82.61-14.99-15.88-61.72-37.41-92.97-50.67-17.77,15.63-39.18,22.59-62.41,22.59s-44.64-6.96-62.41-22.59c-31.24,13.25-77.98,34.79-92.97,50.67-19.07,20.21-25.12,82.44-26.98,114.1-.9,15.35,7.81,29.76,22.23,36.84,23.46,11.54,69.87,24.4,160.13,24.4,43.56,0,76.88-3,102.36-7.39-1.08-3.8-1.61-7.79-1.48-11.84Z"/>
        <g>
          <path class="cls-2" d="M375.93,494.51c-17.68-5.31-28.24-23.79-23.79-41.71,3.65-14.71,16.09-25.07,30.73-26.34.19-2.17.59-4.33,1.2-6.44,5.31-18.62,24.9-29.39,43.51-23.8,17.68,5.31,28.24,23.79,23.79,41.71-3.65,14.71-16.09,25.07-30.73,26.34-.19,2.17-.59,4.33-1.2,6.44-5.31,18.62-24.9,29.39-43.51,23.8ZM426.72,405.29c-15.6-5.85-32.73,4.22-34.93,21.06-.19,1.47-.22,2.95-.16,4.43l.19,4.65-4.81-.2c-12.66-.53-23.86,8.09-26.48,20.71-2.58,12.41,4.39,25.04,16.26,29.49,15.6,5.85,32.73-4.22,34.93-21.06.19-1.47.22-2.95.16-4.43l-.19-4.65,4.81.2c12.66.53,23.86-8.09,26.48-20.71,2.58-12.41-4.39-25.04-16.26-29.49Z"/>
          <path class="cls-2" d="M364.43,492.97c-10.83-7.02-17.28-19.28-16.89-32.18.6-19.64,14.33-34.61,32.21-37.47.24-1.43.56-2.86.96-4.26,6.86-24.06,35.37-36.2,58.37-21.31,10.83,7.01,17.28,19.28,16.89,32.18-.6,19.65-14.33,34.61-32.21,37.47-.24,1.43-.56,2.86-.96,4.26-6.86,24.06-35.38,36.2-58.38,21.31ZM427.88,400c-17.12-5.95-35.55,3.79-40.45,20.98-.54,1.89-.9,3.84-1.08,5.79l-.26,2.92-2.92.25c-13.04,1.13-23.8,10.04-27.37,22.7-4.47,15.84,4.27,32.67,19.82,38.08,17.12,5.96,35.55-3.79,40.46-20.98.54-1.89.9-3.84,1.08-5.79l.26-2.92,2.92-.25c13.04-1.13,23.8-10.04,27.37-22.7,4.47-15.84-4.27-32.67-19.82-38.08ZM377.8,489.45c-15.25-4.39-24.36-20.36-20.35-35.72,3.52-13.5,15.84-22.59,29.71-22.01l1.02.04-.04-1.02c-.13-3.13.25-6.25,1.1-9.26,4.46-15.64,20.83-24.73,36.47-20.23,15.25,4.39,24.36,20.36,20.35,35.72-3.52,13.5-15.84,22.58-29.71,22.01l-1.02-.04.04,1.02c.13,3.13-.25,6.25-1.1,9.26-4.46,15.64-20.83,24.73-36.47,20.23ZM423.89,408.03c-13.25-3.89-27.22,5.03-28.7,19.42-.1,1.02-.11,2.05-.07,3.08l.22,5.58c.06,1.6-1.25,2.92-2.86,2.85l-5.63-.23c-10.67-.45-20.14,6.62-22.72,17.08-2.85,11.57,4.03,23.53,15.47,26.89,13.25,3.89,27.22-5.03,28.7-19.41.1-1.02.11-2.05.07-3.08l-.22-5.58c-.06-1.6,1.25-2.92,2.86-2.85l5.63.24c10.67.44,20.14-6.62,22.72-17.09,2.85-11.57-4.04-23.53-15.47-26.89Z"/>
        </g>
      </g>
    </g>
  </g>
</svg>